<svg width="539" height="152" viewBox="0 0 539 152" fill="none" xmlns="http://www.w3.org/2000/svg"><g clip-path="url(#clip0_2289_15170)"><path d="M287.49 125.03h-2a.533.533 0 00-.344.125.534.534 0 00-.186.315c-1.53 6.61-5.51 9.83-12.19 9.83s-10.6-3.22-12.13-9.83a.545.545 0 00-.54-.44h-1.94a.583.583 0 00-.42.18.557.557 0 00-.13.43c.52 4.55 2.15 8.18 4.81 10.77a14.336 14.336 0 0010.36 3.9c1.91.07 3.815-.238 5.605-.907 1.79-.67 3.43-1.687 4.825-2.993 2.69-2.59 4.32-6.2 4.84-10.77a.484.484 0 00-.12-.43.537.537 0 00-.44-.18zm-23.31-3.59a4.197 4.197 0 001.625-.324 4.185 4.185 0 001.375-.926 4.25 4.25 0 000-6 4.21 4.21 0 00-2.164-1.152 4.226 4.226 0 00-4.331 1.804 4.227 4.227 0 00.526 5.319 4.25 4.25 0 002.959 1.259l.01.02zm17.67-.18a4.202 4.202 0 004.21-4.22 4.221 4.221 0 00-4.21-4.21 4.231 4.231 0 00-4.2 4.21 4.12 4.12 0 001.23 3 4.009 4.009 0 002.97 1.22z" fill="#EE7800"/><path d="M272.94 95.21a28 28 0 100 56.001 28 28 0 000-56.001zm0 50.94a23 23 0 110-46.001 23 23 0 010 46.001z" fill="#EE7800"/><path d="M55.76 37.94l-7.72 7.5c-4.88-5.073-10.567-7.607-17.06-7.6a19.728 19.728 0 00-14.23 5.52 17.879 17.879 0 00-5.72 13.4 18.289 18.289 0 005.93 13.82 20.31 20.31 0 0014.62 5.63 18.63 18.63 0 009.61-2.27 16.131 16.131 0 006.26-7.16H30.73V56.54h29.08l.08 2.38a28.621 28.621 0 01-14.06 24.31 29.221 29.221 0 01-14.61 3.49 33.001 33.001 0 01-16-3.83 28.32 28.32 0 01-11.14-10.9A30.1 30.1 0 010 56.72a28.13 28.13 0 017.58-19.56c6-6.57 13.77-9.9 23.32-9.9 4.824-.035 9.605.9 14.06 2.75a32.12 32.12 0 0110.8 7.93zm38.09-.14a18.238 18.238 0 00-13.45 5.45 18.83 18.83 0 00-5.45 13.86c0 6.27 2.29 11.2 6.88 14.84a19 19 0 0012.22 4.26 18.056 18.056 0 0013.28-5.52 19.619 19.619 0 000-27.31 18.25 18.25 0 00-13.48-5.58zM94 27.26a29.86 29.86 0 0129.83 29.93 28.414 28.414 0 01-8.67 21 28.937 28.937 0 01-21.08 8.56c-8.627 0-15.813-2.937-21.56-8.81a29.89 29.89 0 01-4.59-35.85 29.49 29.49 0 0111-10.81A30.17 30.17 0 0194 27.26zm62.87 10.54a18.205 18.205 0 00-13.45 5.45 18.789 18.789 0 00-5.45 13.86c0 6.27 2.28 11.2 6.86 14.84a19.06 19.06 0 0012.24 4.26 17.999 17.999 0 0013.28-5.52 19.689 19.689 0 00-.05-27.31 18.234 18.234 0 00-13.43-5.58zm.13-10.54a29.874 29.874 0 0121.13 8.777 29.868 29.868 0 018.72 21.153 28.359 28.359 0 01-8.68 21 28.911 28.911 0 01-21.08 8.56c-8.667 0-15.85-2.937-21.55-8.81a29.822 29.822 0 01-4.58-35.85 29.387 29.387 0 0111-10.81A30.072 30.072 0 01157 27.26zm45.37 11.9v35.68h5.21c5.11 0 8.77-.57 11.09-1.69a13.091 13.091 0 005.61-5.7 20.187 20.187 0 002.19-9.86c0-6-1.733-10.667-5.2-14-3.13-3-8.15-4.48-15.08-4.48l-3.82.05zm-10.85-10.5h13.06c8.44 0 14.7 1 18.79 3.06a24.21 24.21 0 0110.11 10 34.2 34.2 0 011.76 28.18 25.625 25.625 0 01-6.13 9.12 22.099 22.099 0 01-8.51 5c-3.05.91-8.3 1.37-15.81 1.37h-13.27V28.66z" fill="#9FA0A0"/><path d="M302.37 13.47l-14 10.4c-4.88-5.7-9.88-8.55-14.95-8.55a10.41 10.41 0 00-6.07 1.67c-1.56 1.12-2.34 2.36-2.34 3.76a5.84 5.84 0 001.67 3.94c1.55 1.66 6.12 5.22 13.8 10.67 7.207 5.053 11.573 8.247 13.1 9.58a33.638 33.638 0 018.09 9.26 20.068 20.068 0 012.39 9.69c0 6.79-2.8 12.42-8.45 16.87-5.65 4.45-13 6.64-22 6.64a37.648 37.648 0 01-18.48-4.34c-5.22-2.92-9.73-7.47-13.47-13.69l15.84-8c4.76 7.367 10.243 11.057 16.45 11.07a13.76 13.76 0 008.15-2.38c2.2-1.587 3.3-3.42 3.3-5.5a8.76 8.76 0 00-2.46-5.66c-1.69-1.87-5.35-4.77-11-8.65-10.78-7.4-17.737-13.1-20.87-17.1-3.15-4-4.71-8-4.71-12 0-5.76 2.63-10.72 7.88-14.84 5.25-4.12 11.7-6.2 19.4-6.2 4.87-.035 9.696.929 14.18 2.83 4.5 1.89 9.33 5.41 14.55 10.53zm19.62-11.41h15.1l19.57 58.06L376.3 2.06h15.36l13.89 83.24h-15.37l-8.89-52.58L363.5 85.3h-13.78L332 32.72l-9.17 52.58h-15.39l14.55-83.24zm107.9 0h-15.8V85.3h15.8V2.06zm14.68 0h15.8v68.07h23.39V85.3h-39.19V2.06zm48.42 0h45.49v15.32h-29.7v15.15h29.7v15.33h-29.7v21.8h29.7V85.3h-45.49V2.06z" fill="#EE7800"/><path d="M240.22 106.37l-6.9 6.54c-4.667-4.933-9.947-7.403-15.84-7.41a17.376 17.376 0 00-16.302 10.826 17.38 17.38 0 00-1.278 6.764 18.716 18.716 0 002.25 9.21 15.938 15.938 0 006.37 6.29 18.256 18.256 0 009.16 2.35c2.692.033 5.36-.517 7.82-1.61a27.797 27.797 0 007.82-5.83l6.68 7a36.002 36.002 0 01-10.84 7.8 29.543 29.543 0 01-11.64 2.17c-8.053 0-14.64-2.56-19.76-7.68-5.13-5.1-7.72-11.64-7.72-19.63a27 27 0 013.54-13.82 26.003 26.003 0 0110-9.69 28.38 28.38 0 0114.07-3.71 29.805 29.805 0 0122.57 10.39v.04zm71.66-9.08h9.5l11.97 36.13 12.16-36.13h9.61l8.56 51.8h-9.53l-5.46-32.71-11.01 32.71h-8.74l-10.83-32.71-5.72 32.71h-9.57l9.06-51.8zm67.62 20.24h3.22a17.89 17.89 0 005.21-.52 4.64 4.64 0 002.31-1.75 5 5 0 00.84-3 4.707 4.707 0 00-2.35-4.38c-1.14-.69-3.28-1-6.37-1h-2.86v10.65zm-9.74-20.24h10.5c5.66 0 9.75.54 12.24 1.56a12.539 12.539 0 015.92 5.09 15.648 15.648 0 012.17 8.38 14.124 14.124 0 01-2.83 9 14.888 14.888 0 01-7.75 5c-1.95.55-5.44.81-10.51.81v22h-9.74V97.29zm51.25 13.8l-7.06 17.85h14l-6.94-17.85zm-5-13.8h9.9l19.89 51.81h-10.22l-4-10.66h-21.26l-4.16 10.66h-10.25l20.1-51.81zm35.74 0h9.32l22.39 34.09V97.29h9.76v51.8h-9.38l-22.34-33.97v33.97h-9.75v-51.8zm46.72 0h10.58l9.62 18.61 9.65-18.61h10.44l-15.18 29.38v22.42h-9.94v-22.42l-15.17-29.38z" fill="#9FA0A0"/></g><defs><clipPath id="clip0_2289_15170"><path fill="#fff" d="M0 0h538.76v151.14H0z"/></clipPath></defs></svg>