<?xml version="1.0" encoding="UTF-8" standalone="no"?>
<!-- Created with Inkscape (http://www.inkscape.org/) -->

<svg
   xmlns:dc="http://purl.org/dc/elements/1.1/"
   xmlns:cc="http://creativecommons.org/ns#"
   xmlns:rdf="http://www.w3.org/1999/02/22-rdf-syntax-ns#"
   xmlns:svg="http://www.w3.org/2000/svg"
   xmlns="http://www.w3.org/2000/svg"
   xmlns:sodipodi="http://sodipodi.sourceforge.net/DTD/sodipodi-0.dtd"
   xmlns:inkscape="http://www.inkscape.org/namespaces/inkscape"
   width="132.29166mm"
   height="23.15712mm"
   viewBox="0 0 132.29166 23.15712"
   version="1.1"
   id="svg4531"
   inkscape:version="0.92.1 r15371"
   sodipodi:docname="Kaiyodo logo.svg">
  <defs
     id="defs4525" />
  <sodipodi:namedview
     id="base"
     pagecolor="#ffffff"
     bordercolor="#666666"
     borderopacity="1.0"
     inkscape:pageopacity="0.0"
     inkscape:pageshadow="2"
     inkscape:zoom="1.4"
     inkscape:cx="534.65898"
     inkscape:cy="130.35673"
     inkscape:document-units="mm"
     inkscape:current-layer="layer1"
     showgrid="false"
     fit-margin-top="0"
     fit-margin-left="0"
     fit-margin-right="0"
     fit-margin-bottom="0"
     inkscape:window-width="1920"
     inkscape:window-height="1027"
     inkscape:window-x="-8"
     inkscape:window-y="-8"
     inkscape:window-maximized="1" />
  <metadata
     id="metadata4528">
    <rdf:RDF>
      <cc:Work
         rdf:about="">
        <dc:format>image/svg+xml</dc:format>
        <dc:type
           rdf:resource="http://purl.org/dc/dcmitype/StillImage" />
        <dc:title></dc:title>
      </cc:Work>
    </rdf:RDF>
  </metadata>
  <g
     inkscape:label="Layer 1"
     inkscape:groupmode="layer"
     id="layer1"
     transform="translate(-57.074406,-127.42739)">
    <path
       inkscape:connector-curvature="0"
       id="シェイプ_4"
       data-name="シェイプ 4"
       class="cls-1"
       d="m 65.689885,133.81031 v 10.36385 h 3.27924 v -4.06324 h 1.84477 l 4.7314,4.06202 h 3.96814 l -6.04579,-5.18193 6.04579,-5.18192 h -3.96692 l -4.73262,4.05348 h -1.84477 v -4.05226 z m 36.237505,10.36385 h 3.64991 v -10.36385 h -3.64991 z m 18.60373,-10.36385 -3.85657,4.06933 -3.85292,-4.06933 h -4.25649 l 6.3567,6.692 v 3.67124 h 3.50847 v -3.67185 l 6.35669,-6.69139 z m 36.22105,0 h -10.62599 v 10.36385 h 10.62417 c 4.57716,0 4.59972,-2.8653 4.59972,-2.8653 l 0.0195,-4.6235 c 0,0 -0.004,-2.87505 -4.61923,-2.87505 z m 1.05529,6.52739 c 0,0 0,1.4735 -2.4605,1.4735 h -5.75072 v -5.66964 h 5.75194 c 2.4666,0 2.4605,1.50215 2.4605,1.50215 v 2.69399 z m 19.64194,-6.52739 h -8.63675 c -3.40117,0 -3.41031,2.48488 -3.41031,2.48488 l 0.0225,5.39408 c 0,0 -0.0134,2.48367 3.38776,2.48367 h 8.63675 c 3.40117,0 3.39142,-2.48367 3.39142,-2.48367 l 0.0195,-5.39408 c 0,0 -0.01,-2.48488 -3.41093,-2.48488 z m -0.15424,6.52739 c 0,0 0,1.4735 -1.84111,1.4735 h -4.63934 c -1.84782,0 -1.84782,-1.4735 -1.84782,-1.4735 v -2.69216 c 0,0 0,-1.50215 1.84782,-1.50215 h 4.63995 c 1.84111,0 1.84111,1.50215 1.84111,1.50215 v 2.69216 z m -38.73703,-6.52739 h -8.63675 c -3.40056,0 -3.41398,2.48488 -3.41398,2.48488 l 0.0232,5.39408 c 0,0 -0.0128,2.48367 3.38776,2.48367 h 8.63675 c 3.40422,0 3.38776,-2.48367 3.38776,-2.48367 l 0.0262,-5.39408 c 0,0 -0.007,-2.48488 -3.41092,-2.48488 z m -0.15058,6.52739 c 0,0 0,1.4735 -1.84782,1.4735 h -4.63325 c -1.84842,0 -1.84842,-1.4735 -1.84842,-1.4735 v -2.69216 c 0,0 0,-1.50215 1.84842,-1.50215 h 4.63325 c 1.84782,0 1.84782,1.50215 1.84782,1.50215 z m 45.02118,10.24681 H 63.012965 a 5.9695792,5.9695792 0 0 1 -5.93849,-5.99824 V 133.4305 a 5.9744562,5.9744562 0 0 1 5.94031,-6.00311 H 183.43056 a 5.9744562,5.9744562 0 0 1 5.93544,6.00311 v 11.15638 a 5.9689696,5.9689696 0 0 1 -5.93727,5.99763 z M 63.012965,129.8062 a 3.6102785,3.6102785 0 0 0 -3.58773,3.6243 v 11.15638 a 3.6102785,3.6102785 0 0 0 3.58773,3.6243 H 183.42873 a 3.6096689,3.6096689 0 0 0 3.58468,-3.6243 V 133.4305 a 3.6102785,3.6102785 0 0 0 -3.58468,-3.6243 z m 32.32546,14.36674 h 3.94497 l -6.07504,-10.3608 h -5.46176 l -6.07443,10.3608 h 3.93826 l 1.21928,-2.07704 h 7.29006 z m -7.39491,-3.97484 2.53244,-4.32539 2.53609,4.32539 z"
       style="fill:#000000;fill-opacity:1;fill-rule:evenodd;stroke-width:0.60963839" />
  </g>
</svg>
